<svg width="180" height="40" viewBox="0 0 180 40" fill="none" xmlns="http://www.w3.org/2000/svg">
  <path d="M19.55 30H13.8L5.25 16.25V30H0.55V8.5H6.3L14.85 22.25V8.5H19.55V30ZM31.1891 30.4C29.5391 30.4 28.0724 30.0333 26.7891 29.3C25.5057 28.5667 24.5057 27.5333 23.7891 26.2C23.0724 24.8667 22.7141 23.3167 22.7141 21.55C22.7141 19.7833 23.0724 18.2333 23.7891 16.9C24.5057 15.5667 25.5057 14.5333 26.7891 13.8C28.0724 13.0667 29.5391 12.7 31.1891 12.7C32.8391 12.7 34.3057 13.0667 35.5891 13.8C36.8724 14.5333 37.8724 15.5667 38.5891 16.9C39.3057 18.2333 39.6641 19.7833 39.6641 21.55C39.6641 23.3167 39.3057 24.8667 38.5891 26.2C37.8724 27.5333 36.8724 28.5667 35.5891 29.3C34.3057 30.0333 32.8391 30.4 31.1891 30.4ZM31.1891 26.2C32.3057 26.2 33.1891 25.8 33.8391 25C34.5057 24.1833 34.8391 23.0333 34.8391 21.55C34.8391 20.0667 34.5057 18.9167 33.8391 18.1C33.1891 17.3 32.3057 16.9 31.1891 16.9C30.0724 16.9 29.1891 17.3 28.5391 18.1C27.8891 18.9167 27.5641 20.0667 27.5641 21.55C27.5641 23.0333 27.8891 24.1833 28.5391 25C29.1891 25.8 30.0724 26.2 31.1891 26.2ZM47.8859 30.4C46.2193 30.4 44.7526 30.0333 43.4859 29.3C42.2359 28.5667 41.2526 27.5333 40.5359 26.2C39.8193 24.8667 39.4609 23.3167 39.4609 21.55C39.4609 19.7833 39.8193 18.2333 40.5359 16.9C41.2693 15.5667 42.2526 14.5333 43.4859 13.8C44.7359 13.0667 46.2026 12.7 47.8859 12.7C49.3026 12.7 50.5693 12.9833 51.6859 13.55C52.8026 14.1167 53.6359 14.9333 54.1859 16C54.7526 17.05 55.0359 18.35 55.0359 19.9H50.5109C50.5109 18.9333 50.2526 18.1833 49.7359 17.65C49.2359 17.1167 48.5359 16.85 47.6359 16.85C46.9026 16.85 46.2693 17.0333 45.7359 17.4C45.2193 17.75 44.8193 18.2833 44.5359 19C44.2693 19.7 44.1359 20.5333 44.1359 21.5C44.1359 22.4667 44.2693 23.3167 44.5359 24.05C44.8193 24.7667 45.2193 25.3167 45.7359 25.7C46.2693 26.0667 46.9026 26.25 47.6359 26.25C48.2193 26.25 48.7359 26.1167 49.1859 25.85C49.6359 25.5833 49.9859 25.2 50.2359 24.7C50.4859 24.1833 50.6109 23.55 50.6109 22.8H55.0359C55.0359 24.35 54.7526 25.6667 54.1859 26.75C53.6359 27.8167 52.8026 28.65 51.6859 29.25C50.5693 30.0167 49.3026 30.4 47.8859 30.4ZM63.9828 24.5V30H59.2828V13.1H68.6828C69.8328 13.1 70.8328 13.3167 71.6828 13.75C72.5328 14.1833 73.1828 14.8 73.6328 15.6C74.0828 16.3833 74.3078 17.3 74.3078 18.35C74.3078 19.9167 73.7661 21.1833 72.6828 22.15C71.6161 23.1167 70.0995 23.6 68.1328 23.6H63.9828V24.5ZM63.9828 19.9H67.9828C68.6995 19.9 69.2495 19.75 69.6328 19.45C70.0328 19.15 70.2328 18.7 70.2328 18.1C70.2328 17.5 70.0328 17.0167 69.6328 16.65C69.2495 16.2833 68.6995 16.1 67.9828 16.1H63.9828V19.9ZM80.4797 24.5V30H75.7797V13.1H85.1797C86.3297 13.1 87.3297 13.3167 88.1797 13.75C89.0297 14.1833 89.6797 14.8 90.1297 15.6C90.5797 16.3833 90.8047 17.3 90.8047 18.35C90.8047 19.9167 90.263 21.1833 89.1797 22.15C88.113 23.1167 86.5964 23.6 84.6297 23.6H80.4797V24.5ZM80.4797 19.9H84.4797C85.1964 19.9 85.7464 19.75 86.1297 19.45C86.5297 19.15 86.7297 18.7 86.7297 18.1C86.7297 17.5 86.5297 17.0167 86.1297 16.65C85.7464 16.2833 85.1964 16.1 84.4797 16.1H80.4797V19.9ZM104.881 30H100.181L91.6312 16.25V30H86.9312V8.5H91.6312L100.181 22.25V8.5H104.881V30ZM116.52 30.4C114.87 30.4 113.403 30.0333 112.12 29.3C110.837 28.5667 109.837 27.5333 109.12 26.2C108.403 24.8667 108.045 23.3167 108.045 21.55C108.045 19.7833 108.403 18.2333 109.12 16.9C109.837 15.5667 110.837 14.5333 112.12 13.8C113.403 13.0667 114.87 12.7 116.52 12.7C118.17 12.7 119.637 13.0667 120.92 13.8C122.203 14.5333 123.203 15.5667 123.92 16.9C124.637 18.2333 124.995 19.7833 124.995 21.55C124.995 23.3167 124.637 24.8667 123.92 26.2C123.203 27.5333 122.203 28.5667 120.92 29.3C119.637 30.0333 118.17 30.4 116.52 30.4ZM116.52 26.2C117.637 26.2 118.52 25.8 119.17 25C119.837 24.1833 120.17 23.0333 120.17 21.55C120.17 20.0667 119.837 18.9167 119.17 18.1C118.52 17.3 117.637 16.9 116.52 16.9C115.403 16.9 114.52 17.3 113.87 18.1C113.22 18.9167 112.895 20.0667 112.895 21.55C112.895 23.0333 113.22 24.1833 113.87 25C114.52 25.8 115.403 26.2 116.52 26.2Z" fill="#222222"/>
  <path d="M135.692 30H130.092L125.892 13.1H130.742L133.042 25.1H133.192L135.642 13.1H140.392L142.842 25.1H142.992L145.292 13.1H150.142L145.892 30H140.292L137.992 19.5H137.892L135.692 30ZM166.516 21.55C166.516 23.3167 166.158 24.8667 165.441 26.2C164.725 27.5333 163.725 28.5667 162.441 29.3C161.158 30.0333 159.691 30.4 158.041 30.4C156.391 30.4 154.925 30.0333 153.641 29.3C152.358 28.5667 151.358 27.5333 150.641 26.2C149.925 24.8667 149.566 23.3167 149.566 21.55C149.566 19.7833 149.925 18.2333 150.641 16.9C151.358 15.5667 152.358 14.5333 153.641 13.8C154.925 13.0667 156.391 12.7 158.041 12.7C159.691 12.7 161.158 13.0667 162.441 13.8C163.725 14.5333 164.725 15.5667 165.441 16.9C166.158 18.2333 166.516 19.7833 166.516 21.55ZM161.691 21.55C161.691 20.0667 161.358 18.9167 160.691 18.1C160.041 17.3 159.158 16.9 158.041 16.9C156.925 16.9 156.041 17.3 155.391 18.1C154.741 18.9167 154.416 20.0667 154.416 21.55C154.416 23.0333 154.741 24.1833 155.391 25C156.041 25.8 156.925 26.2 158.041 26.2C159.158 26.2 160.041 25.8 160.691 25C161.358 24.1833 161.691 23.0333 161.691 21.55ZM177.992 13.1C179.675 13.1 181.075 13.5333 182.192 14.4C183.325 15.2667 183.892 16.5 183.892 18.1C183.892 19.7 183.325 20.9333 182.192 21.8C181.075 22.6667 179.675 23.1 177.992 23.1H174.892V30H170.192V13.1H177.992ZM177.592 19.3C178.258 19.3 178.758 19.15 179.092 18.85C179.442 18.55 179.617 18.1333 179.617 17.6C179.617 17.0667 179.442 16.65 179.092 16.35C178.758 16.05 178.258 15.9 177.592 15.9H174.892V19.3H177.592Z" fill="#0F62FE"/>
</svg>